<svg width="232" height="559" viewBox="0 0 232 559" fill="none" xmlns="http://www.w3.org/2000/svg">
<path opacity="0.1" fill-rule="evenodd" clip-rule="evenodd" d="M376.047 491.115L372.164 495L534.582 332.798C564.473 302.946 564.473 254.547 534.582 224.695L332.007 22.3888C302.116 -7.46293 253.652 -7.46293 223.761 22.3888L185 61.0983L403.14 278.746L284.688 398.586L376.047 491.115ZM333.395 536.505L370 499.791L153.932 278.926L271.516 160.994L178.584 68L22.429 224.617C-7.47632 254.611 -7.47632 303.241 22.429 333.235L225.098 536.505C255.004 566.498 303.49 566.498 333.395 536.505Z" fill="url(#paint0_linear_630_2842)"/>
<defs>
<linearGradient id="paint0_linear_630_2842" x1="331.784" y1="-167.481" x2="-132.947" y2="282.903" gradientUnits="userSpaceOnUse">
<stop stop-color="#FFBBCF"/>
<stop offset="1" stop-color="#A665D1"/>
</linearGradient>
</defs>
</svg>
