<svg width="24" height="24" viewBox="0 0 24 24" fill="none" xmlns="http://www.w3.org/2000/svg">
<path opacity="0.4" d="M18.8105 6.25H20.1705C19.9805 5.98 19.7805 5.73 19.5705 5.48L18.8105 6.25Z" fill="#292D32"/>
<path opacity="0.4" d="M18.5205 4.42C18.2705 4.21 18.0205 4.01 17.7505 3.82V5.18L18.5205 4.42Z" fill="#292D32"/>
<path opacity="0.4" d="M17.0005 7.75C16.9005 7.75 16.8105 7.73 16.7105 7.69C16.5305 7.61 16.3805 7.47 16.3005 7.28C16.2605 7.19 16.2405 7.09 16.2405 6.99V2.99C16.2405 2.98 16.2505 2.97 16.2505 2.95C14.9605 2.35 13.5205 2 12.0005 2C6.48049 2 2.00049 6.48 2.00049 12C2.00049 17.52 6.48049 22 12.0005 22C17.5205 22 22.0005 17.52 22.0005 12C22.0005 10.48 21.6505 9.04 21.0405 7.74C21.0305 7.74 21.0205 7.75 21.0005 7.75H17.0005Z" fill="#292D32"/>
<path d="M19.5805 5.48L22.5305 2.53C22.8205 2.24 22.8205 1.76 22.5305 1.47C22.2405 1.18 21.7605 1.18 21.4705 1.47L18.5205 4.42C18.9005 4.75 19.2505 5.11 19.5805 5.48Z" fill="#292D32"/>
<path d="M17.7505 3C17.7505 2.59 17.4105 2.25 17.0005 2.25C16.6005 2.25 16.2805 2.57 16.2605 2.96C16.7805 3.21 17.2805 3.49 17.7505 3.82V3Z" fill="#292D32"/>
<path d="M21.7505 7C21.7505 6.59 21.4105 6.25 21.0005 6.25H20.1705C20.5005 6.72 20.7905 7.22 21.0305 7.74C21.4305 7.72 21.7505 7.4 21.7505 7Z" fill="#292D32"/>
<path d="M6.79901 16V8.72727H9.39134C9.95478 8.72727 10.4223 8.82434 10.794 9.01847C11.1681 9.21259 11.4474 9.4813 11.6321 9.82457C11.8168 10.1655 11.9091 10.5597 11.9091 11.0071C11.9091 11.4522 11.8156 11.844 11.6286 12.1825C11.4439 12.5187 11.1645 12.7803 10.7905 12.9673C10.4188 13.1544 9.95123 13.2479 9.38778 13.2479H7.42401V12.3033H9.28835C9.64347 12.3033 9.93229 12.2524 10.1548 12.1506C10.3797 12.0488 10.5443 11.9008 10.6484 11.7067C10.7526 11.5125 10.8047 11.2794 10.8047 11.0071C10.8047 10.7325 10.7514 10.4946 10.6449 10.2933C10.5407 10.0921 10.3762 9.93821 10.1513 9.83168C9.92874 9.72277 9.63636 9.66832 9.27415 9.66832H7.89631V16H6.79901ZM10.3892 12.7188L12.1861 16H10.9361L9.17472 12.7188H10.3892ZM13.1591 18.0455V10.5455H14.196V11.4297H14.2848C14.3464 11.3161 14.4351 11.1847 14.5511 11.0355C14.6671 10.8864 14.8281 10.7562 15.0341 10.6449C15.2401 10.5312 15.5123 10.4744 15.8509 10.4744C16.2912 10.4744 16.6842 10.5857 17.0298 10.8082C17.3755 11.0308 17.6465 11.3516 17.843 11.7706C18.0419 12.1896 18.1413 12.6939 18.1413 13.2834C18.1413 13.8729 18.0431 14.3783 17.8466 14.7997C17.6501 15.2187 17.3802 15.5419 17.0369 15.7692C16.6937 15.9941 16.3018 16.1065 15.8615 16.1065C15.5301 16.1065 15.259 16.0509 15.0483 15.9396C14.84 15.8284 14.6766 15.6982 14.5582 15.549C14.4399 15.3999 14.3487 15.2673 14.2848 15.1513H14.2209V18.0455H13.1591ZM14.1996 13.2727C14.1996 13.6562 14.2552 13.9924 14.3665 14.2812C14.4777 14.5701 14.6387 14.7962 14.8494 14.9595C15.0601 15.1205 15.3182 15.201 15.6236 15.201C15.9408 15.201 16.206 15.117 16.419 14.9489C16.6321 14.7784 16.7931 14.5476 16.902 14.2564C17.0133 13.9652 17.0689 13.6373 17.0689 13.2727C17.0689 12.9129 17.0144 12.5897 16.9055 12.3033C16.799 12.0168 16.638 11.7907 16.4226 11.625C16.2095 11.4593 15.9432 11.3764 15.6236 11.3764C15.3158 11.3764 15.0554 11.4557 14.8423 11.6143C14.6316 11.773 14.4718 11.9943 14.3629 12.2784C14.254 12.5625 14.1996 12.8939 14.1996 13.2727Z" fill="black"/>
</svg>
