<svg width="24" height="24" viewBox="0 0 24 24" fill="none" xmlns="http://www.w3.org/2000/svg">
<path opacity="0.4" d="M22.0005 9V16.46C22.0005 18.75 20.1405 20.6 17.8505 20.6H6.15049C3.86049 20.6 2.00049 18.75 2.00049 16.46V9H22.0005Z" fill="#292D32"/>
<path d="M22.0005 7.5399V8.9999H2.00049V7.5399C2.00049 5.2499 3.86049 3.3999 6.15049 3.3999H17.8505C20.1405 3.3999 22.0005 5.2499 22.0005 7.5399Z" fill="#292D32"/>
<path d="M8.00049 17.25H6.00049C5.59049 17.25 5.25049 16.91 5.25049 16.5C5.25049 16.09 5.59049 15.75 6.00049 15.75H8.00049C8.41049 15.75 8.75049 16.09 8.75049 16.5C8.75049 16.91 8.41049 17.25 8.00049 17.25Z" fill="#292D32"/>
<path d="M14.5005 17.25H10.5005C10.0905 17.25 9.75049 16.91 9.75049 16.5C9.75049 16.09 10.0905 15.75 10.5005 15.75H14.5005C14.9105 15.75 15.2505 16.09 15.2505 16.5C15.2505 16.91 14.9105 17.25 14.5005 17.25Z" fill="#292D32"/>
</svg>
