<svg width="24" height="24" viewBox="0 0 24 24" fill="none" xmlns="http://www.w3.org/2000/svg">
<path d="M22 6V8.42C22 10 21 11 19.42 11H16V4.01C16 2.9 16.91 2 18.02 2C19.11 2.01 20.11 2.45 20.83 3.17C21.55 3.9 22 4.9 22 6Z" fill="#292D32"/>
<path opacity="0.4" d="M2 7V21C2 21.83 2.94 22.3 3.6 21.8L5.31 20.52C5.71 20.22 6.27 20.26 6.63 20.62L8.29 22.29C8.68 22.68 9.32 22.68 9.71 22.29L11.39 20.61C11.74 20.26 12.3 20.22 12.69 20.52L14.4 21.8C15.06 22.29 16 21.82 16 21V4C16 2.9 16.9 2 18 2H7H6C3 2 2 3.79 2 6V7Z" fill="#292D32"/>
<path d="M9 6C8.06 6 7.19 6.33 6.5 6.88C5.58 7.61 5 8.74 5 10C5 12.21 6.79 14 9 14C10.01 14 10.93 13.62 11.64 13C12.47 12.27 13 11.2 13 10C13 7.79 11.21 6 9 6ZM10 10.25C10 10.51 9.86 10.76 9.64 10.89L8.39 11.64C8.27 11.71 8.14 11.75 8 11.75C7.75 11.75 7.5 11.62 7.36 11.39C7.15 11.03 7.26 10.57 7.62 10.36L8.50999 9.83002V8.75C8.50999 8.34 8.84999 8 9.25999 8C9.66999 8 10.01 8.34 10.01 8.75V10.25H10Z" fill="#292D32"/>
</svg>
