<svg width="24" height="24" viewBox="0 0 24 24" fill="none" xmlns="http://www.w3.org/2000/svg">
<path opacity="0.4" d="M19.9998 7.04V16.96C19.9998 18.48 19.8598 19.56 19.4998 20.33C19.4998 20.34 19.4897 20.36 19.4797 20.37C19.2597 20.65 18.9698 20.79 18.6298 20.79C18.0998 20.79 17.4598 20.44 16.7698 19.7C15.9498 18.82 14.6897 18.89 13.9697 19.85L12.9598 21.19C12.5598 21.73 12.0298 22 11.4998 22C10.9698 22 10.4397 21.73 10.0397 21.19L9.01978 19.84C8.30978 18.89 7.05975 18.82 6.23975 19.69L6.22974 19.7C5.09974 20.91 4.09978 21.09 3.51978 20.37C3.50978 20.36 3.49976 20.34 3.49976 20.33C3.13976 19.56 2.99976 18.48 2.99976 16.96V7.04C2.99976 5.52 3.13976 4.44 3.49976 3.67C3.49976 3.66 3.49978 3.65 3.51978 3.64C4.08978 2.91 5.09974 3.09 6.22974 4.3L6.23975 4.31C7.05975 5.18 8.30978 5.11 9.01978 4.16L10.0397 2.81C10.4397 2.27 10.9698 2 11.4998 2C12.0298 2 12.5598 2.27 12.9598 2.81L13.9697 4.15C14.6897 5.11 15.9498 5.18 16.7698 4.3C17.4598 3.56 18.0998 3.21 18.6298 3.21C18.9698 3.21 19.2597 3.36 19.4797 3.64C19.4997 3.65 19.4998 3.66 19.4998 3.67C19.8598 4.44 19.9998 5.52 19.9998 7.04Z" fill="#292D32"/>
<path d="M15.9998 11H7.99976C7.58976 11 7.24976 10.66 7.24976 10.25C7.24976 9.84 7.58976 9.5 7.99976 9.5H15.9998C16.4098 9.5 16.7498 9.84 16.7498 10.25C16.7498 10.66 16.4098 11 15.9998 11Z" fill="#292D32"/>
<path d="M13.9998 14.5H7.99976C7.58976 14.5 7.24976 14.16 7.24976 13.75C7.24976 13.34 7.58976 13 7.99976 13H13.9998C14.4098 13 14.7498 13.34 14.7498 13.75C14.7498 14.16 14.4098 14.5 13.9998 14.5Z" fill="#292D32"/>
</svg>
