<svg width="24" height="24" viewBox="0 0 24 24" fill="none" xmlns="http://www.w3.org/2000/svg">
<path d="M13.0585 3.844L13.0592 3.84541L14.818 7.36299C15.0054 7.74403 15.3186 8.06976 15.6422 8.3085C15.9671 8.54823 16.3704 8.7504 16.7867 8.8198L16.7871 8.81986L19.9767 9.3498C19.9768 9.34982 19.977 9.34984 19.9771 9.34986C20.8674 9.49834 21.1596 9.84924 21.2272 10.0595C21.2943 10.2681 21.2627 10.721 20.6215 11.3579L20.6197 11.3597L18.1397 13.8397C17.8173 14.1621 17.6016 14.5932 17.4827 15.0086C17.3637 15.4244 17.3192 15.9025 17.4182 16.344L17.4181 16.344L17.4193 16.349L18.1292 19.4184C18.3946 20.5702 18.1271 20.9847 17.9944 21.0815C17.8605 21.1791 17.3812 21.3064 16.3621 20.7046C16.3619 20.7045 16.3616 20.7044 16.3614 20.7042L13.3724 18.9348C13.3723 18.9347 13.3722 18.9347 13.3721 18.9346C12.9582 18.6894 12.4599 18.59 12.0038 18.59C11.5469 18.59 11.0488 18.6897 10.6328 18.9317L10.6328 18.9317L10.6279 18.9346L7.63794 20.7046L7.63724 20.705C6.62636 21.3049 6.14599 21.1774 6.00958 21.0779C5.87375 20.9788 5.60627 20.5618 5.87069 19.4191L5.87071 19.419L6.58071 16.349L6.58073 16.349L6.58184 16.344C6.68081 15.9025 6.63631 15.4244 6.51729 15.0086C6.39837 14.5932 6.18272 14.1621 5.86033 13.8397L3.38033 11.3597C2.74333 10.7227 2.70978 10.2685 2.77696 10.0581C2.8439 9.8485 3.13332 9.49821 4.02292 9.34986C4.02305 9.34984 4.02317 9.34982 4.0233 9.3498L7.21292 8.81986L7.21292 8.81986L7.21556 8.81942C7.62767 8.74943 8.02816 8.54643 8.35045 8.30746C8.67181 8.06918 8.98472 7.74377 9.17206 7.36293L10.9301 3.84681C10.9302 3.84662 10.9303 3.84643 10.9304 3.84624C11.3561 2.99957 11.7861 2.8275 11.9988 2.8275C12.21 2.8275 12.6377 2.99798 13.0585 3.844Z" fill="#FDCC0D" stroke="#FDCC0D" stroke-width="1.5" stroke-linecap="round" stroke-linejoin="round"/>
</svg>
